<svg width="25" height="24" viewBox="0 0 25 24" fill="none" xmlns="http://www.w3.org/2000/svg">
<g id="Socials">
<path id="Vector" d="M22.2725 18.7033C21.9062 19.5418 21.4727 20.3136 20.9704 21.0232C20.2857 21.9906 19.7251 22.6602 19.2931 23.032C18.6233 23.6424 17.9058 23.955 17.1374 23.9728C16.5857 23.9728 15.9205 23.8172 15.1461 23.5017C14.3692 23.1876 13.6552 23.032 13.0024 23.032C12.3177 23.032 11.5834 23.1876 10.7979 23.5017C10.0113 23.8172 9.37756 23.9816 8.89305 23.9979C8.15619 24.0291 7.42173 23.7076 6.6886 23.032C6.22069 22.6276 5.63542 21.9343 4.93429 20.9521C4.18203 19.9033 3.56358 18.687 3.07906 17.3004C2.56017 15.8026 2.30005 14.3523 2.30005 12.9482C2.30005 11.3398 2.65076 9.95259 3.35324 8.79011C3.90532 7.85636 4.63979 7.11979 5.55903 6.57906C6.47827 6.03834 7.47151 5.76279 8.54114 5.74516C9.12641 5.74516 9.89391 5.92456 10.8477 6.27715C11.7988 6.63091 12.4095 6.81032 12.6772 6.81032C12.8774 6.81032 13.5558 6.60054 14.7058 6.18233C15.7934 5.79449 16.7113 5.63391 17.4633 5.69716C19.5009 5.86012 21.0317 6.6561 22.0497 8.09013C20.2274 9.18432 19.326 10.7169 19.3439 12.6829C19.3603 14.2142 19.9209 15.4886 21.0227 16.5004C21.522 16.97 22.0796 17.333 22.7001 17.5907C22.5655 17.9774 22.4235 18.3477 22.2725 18.7033ZM17.5993 0.480137C17.5993 1.68041 17.1568 2.8011 16.2748 3.8384C15.2104 5.07155 13.9229 5.78412 12.5268 5.67168C12.509 5.52769 12.4987 5.37614 12.4987 5.21688C12.4987 4.06462 13.0049 2.83147 13.9038 1.82321C14.3526 1.3127 14.9234 0.888228 15.6155 0.549615C16.3062 0.216055 16.9595 0.031589 17.5739 0C17.5918 0.160458 17.5993 0.320926 17.5993 0.480121V0.480137Z" fill="white"/>
</g>
</svg>
