<svg width="25" height="24" viewBox="0 0 25 24" fill="none" xmlns="http://www.w3.org/2000/svg">
<g id="Socials" clip-path="url(#clip0_2063_2744)">
<path id="Vector" d="M24.4885 12.2247C24.4885 11.2414 24.4069 10.5239 24.2301 9.77979H12.739V14.2178H19.484C19.3481 15.3207 18.6138 16.9816 16.9819 18.0977L16.959 18.2463L20.5923 20.9965L20.844 21.021C23.1558 18.9349 24.4885 15.8654 24.4885 12.2247Z" fill="#4285F4"/>
<path id="Vector_2" d="M12.739 23.9176C16.0435 23.9176 18.8177 22.8545 20.844 21.0209L16.9819 18.0976C15.9484 18.8018 14.5612 19.2934 12.739 19.2934C9.50248 19.2934 6.75551 17.2074 5.77629 14.324L5.63276 14.3359L1.85483 17.1927L1.80542 17.3269C3.81804 21.2334 7.95214 23.9176 12.739 23.9176Z" fill="#34A853"/>
<path id="Vector_3" d="M5.77634 14.324C5.51797 13.58 5.36844 12.7826 5.36844 11.9589C5.36844 11.135 5.51797 10.3378 5.76275 9.59366L5.75591 9.43519L1.93062 6.53247L1.80547 6.59064C0.975969 8.21174 0.5 10.0322 0.5 11.9589C0.5 13.8855 0.975969 15.7059 1.80547 17.327L5.77634 14.324Z" fill="#FBBC05"/>
<path id="Vector_4" d="M12.739 4.62403C15.0372 4.62403 16.5875 5.59402 17.4714 6.40461L20.9255 3.10928C18.8042 1.1826 16.0435 0 12.739 0C7.95214 0 3.81804 2.68406 1.80542 6.59056L5.7627 9.59359C6.75551 6.7102 9.50248 4.62403 12.739 4.62403Z" fill="#EB4335"/>
</g>
<defs>
<clipPath id="clip0_2063_2744">
<rect width="24" height="24" fill="white" transform="translate(0.5)"/>
</clipPath>
</defs>
</svg>
