<svg width="16" height="17" viewBox="0 0 16 17" fill="none" xmlns="http://www.w3.org/2000/svg">
<g id="Ic_24-map-location">
<g id="Vector">
<path d="M13.3332 7.42968C13.3332 10.5264 10.3429 13.292 8.84048 14.486C8.34899 14.8766 7.65069 14.8766 7.15919 14.486C5.65678 13.292 2.6665 10.5264 2.6665 7.42968C2.6665 6.01942 3.22841 4.66693 4.2286 3.66973C5.2288 2.67253 6.58535 2.1123 7.99984 2.1123C9.41432 2.1123 10.7709 2.67253 11.7711 3.66973C12.7713 4.66693 13.3332 6.01942 13.3332 7.42968Z" stroke="#27AE60" stroke-width="1.5" stroke-linecap="round" stroke-linejoin="round"/>
<path d="M7.99984 9.44564C9.10441 9.44564 9.99984 8.55021 9.99984 7.44564C9.99984 6.34107 9.10441 5.44564 7.99984 5.44564C6.89527 5.44564 5.99984 6.34107 5.99984 7.44564C5.99984 8.55021 6.89527 9.44564 7.99984 9.44564Z" stroke="#27AE60" stroke-width="1.5" stroke-linecap="round" stroke-linejoin="round"/>
</g>
</g>
</svg>
