<svg width="67" height="69" viewBox="0 0 67 69" fill="none" xmlns="http://www.w3.org/2000/svg">
<g id="Icon">
<g id="Group 427320674">
<path id="Vector" d="M33.4993 47.7834L38.7223 41.591C35.336 42.4072 31.9202 42.0991 28.4973 41.4609L33.4993 47.7834Z" fill="#27AE60"/>
<path id="Vector_2" d="M60.4575 4.87695H6.54234C1.94906 4.87695 -1.01764 9.80999 1.08255 13.9565L24.7029 60.5862C25.2188 61.6047 26.0013 62.4592 26.9645 63.0558C27.9277 63.6524 29.0343 63.968 30.1627 63.9679H31.8075L31.7861 49.6649C30.5447 46.5005 27.8961 43.1377 24.8978 39.9632C24.5829 39.6298 24.2848 39.2804 24.0046 38.9165C18.6885 32.0038 16.6128 25.0996 23.2622 18.2199C27.1581 14.0132 31.9165 13.1218 37.2015 14.3862C40.6884 15.2215 43.7581 17.3502 45.7016 20.4024C45.7649 20.502 45.827 20.6016 45.8878 20.7014C48.9479 25.739 48.4914 32.2051 44.8636 36.8376C41.041 41.7193 36.925 46.2772 35.4521 49.5704L35.3981 63.9692H36.8372C37.9656 63.9692 39.0721 63.6536 40.0353 63.057C40.9985 62.4604 41.781 61.606 42.297 60.5875L65.9173 13.9578C68.0178 9.81 65.0514 4.87695 60.4575 4.87695Z" fill="#27AE60"/>
</g>
<path id="Union" fill-rule="evenodd" clip-rule="evenodd" d="M43.9636 27.7124C43.9595 27.6502 43.9553 27.588 43.9521 27.5256C43.6342 27.9198 43.2868 28.3456 42.855 28.8694C42.8459 28.9052 42.8352 28.9477 42.8245 28.9902C42.8138 29.0328 42.8032 29.0753 42.794 29.111C43.0165 30.2476 43.1597 31.0226 43.3051 31.8471C43.734 30.6745 43.9804 29.4112 43.9804 28.0888C43.9804 27.9618 43.972 27.8371 43.9636 27.7124ZM34.2918 37.703C34.2826 37.699 34.2735 37.695 34.2636 37.6922C34.2576 37.6975 34.2527 37.7037 34.2478 37.7098C34.2423 37.7168 34.2368 37.7237 34.2297 37.7293C33.6471 38.2081 33.1887 38.5747 32.757 38.9031C32.8183 38.9061 32.8793 38.9103 32.9403 38.9145C33.0589 38.9226 33.1775 38.9307 33.298 38.9307C34.2025 38.9307 35.0788 38.8101 35.9173 38.5911C36.202 38.5161 36.1814 38.096 35.8923 38.0414C35.4334 37.9552 34.9312 37.851 34.3257 37.7153C34.3137 37.7125 34.3027 37.7077 34.2918 37.703ZM29.6055 20.874C28.1993 22.2871 27.4607 23.0497 26.0928 24.5006C26.0809 24.5482 26.0695 24.5931 26.0581 24.638C26.0467 24.6829 26.0353 24.7278 26.0234 24.7754C26.534 26.7039 26.8209 27.7329 27.3891 29.6686C27.3958 29.6906 27.4146 29.7092 27.4374 29.7159L27.4379 29.7171C29.3857 30.2454 30.404 30.5106 32.283 30.9758C32.3763 30.9499 32.4584 30.9268 32.5511 30.9004C33.9084 29.5357 34.6443 28.7748 35.9778 27.36C35.9897 27.3124 36.0011 27.2676 36.0124 27.2227C36.0238 27.1777 36.0352 27.1328 36.0471 27.0852C35.5466 25.1933 35.2608 24.1672 34.7159 22.3091C34.7009 22.2943 34.6864 22.2799 34.6721 22.2658C34.6204 22.2146 34.5716 22.1664 34.5177 22.1125L33.9356 21.9548C32.3962 21.5403 31.399 21.2841 29.671 20.8566C29.666 20.8555 29.6599 20.8543 29.6543 20.8543C29.636 20.8543 29.6177 20.8617 29.6055 20.874ZM24.843 23.5751C24.9401 23.5993 25.045 23.5666 25.1138 23.4934C26.4306 22.0967 27.1704 21.3329 28.5166 19.9745C28.5876 19.9024 28.6171 19.7909 28.5899 19.6929C28.5235 19.4519 28.4615 19.2284 28.4031 19.0175C28.3897 18.9692 28.3765 18.9216 28.3635 18.8745C28.3146 18.6988 28.1132 18.6132 27.9572 18.705C26.2425 19.7148 24.8352 21.1972 23.8946 22.973C23.8097 23.1341 23.9007 23.3352 24.0755 23.3797L24.843 23.5751ZM36.7025 19.0429L36.8323 18.9094C36.9022 18.8377 36.9721 18.7658 37.0424 18.6935C37.1182 18.6155 37.1946 18.537 37.2718 18.4577C37.4105 18.3147 37.3656 18.0674 37.1813 17.9936C35.9766 17.5138 34.668 17.2468 33.2979 17.2468C32.0721 17.2468 30.8978 17.4676 29.8013 17.8568C29.662 17.9058 29.586 18.0584 29.6265 18.202C29.7236 18.54 29.8296 18.9077 29.9528 19.3285C29.9811 19.4248 30.0627 19.5036 30.1581 19.5273C31.9899 19.9812 33.0088 20.2454 34.8556 20.7416C34.9522 20.768 35.062 20.7371 35.132 20.6644C35.7692 20.0027 36.2474 19.5109 36.7025 19.0429ZM37.5975 26.9071L41.5964 27.9445C41.6996 27.9715 41.8122 27.9316 41.881 27.8488C42.598 26.978 43.0808 26.3782 43.5997 25.7226C43.6546 25.6528 43.6762 25.5593 43.6546 25.472C42.987 22.7522 41.3072 20.4408 39.0431 18.9669C38.9316 18.8942 38.7806 18.9162 38.6885 19.0119C38.4543 19.254 38.2361 19.4785 38.0209 19.6998C37.9577 19.7648 37.8947 19.8296 37.8317 19.8945C37.335 20.4048 36.8284 20.9257 36.1308 21.6703C36.0626 21.7435 36.0359 21.8556 36.0642 21.9525C36.6031 23.7902 36.8905 24.8209 37.3977 26.7043C37.4244 26.8018 37.501 26.8817 37.5975 26.9071ZM27.0544 31.0754C26.2997 31.8594 25.7669 32.4074 25.247 32.9413C24.9911 33.2038 24.7386 33.4634 24.4651 33.7462C24.3724 33.8414 24.3541 33.9951 24.4279 34.1066C25.869 36.288 28.0677 37.9061 30.6409 38.578C30.7197 38.5988 30.8057 38.5825 30.8729 38.5363C31.6192 38.0232 32.2258 37.5597 33.1486 36.8056C33.2352 36.7346 33.2746 36.6112 33.2441 36.5025C33.0809 35.9151 32.9416 35.42 32.7996 34.9171L32.7881 34.8763C32.5975 34.1987 32.4015 33.502 32.1176 32.5319C32.0893 32.4361 32.0082 32.3573 31.9122 32.3336C31.8242 32.3117 31.738 32.2902 31.6535 32.2691C31.3284 32.1881 31.0284 32.1133 30.743 32.0413C29.531 31.7355 28.5788 31.4843 27.0799 31.0765C27.0754 31.0756 27.0715 31.0738 27.0674 31.0719C27.064 31.0702 27.0605 31.0686 27.0566 31.0675L27.0544 31.0754ZM23.4418 24.6858C23.2986 24.6486 23.1488 24.7303 23.1049 24.8733C22.7914 25.8905 22.6155 26.9685 22.6155 28.0887C22.6155 29.7068 22.9762 31.2371 23.6049 32.6175L24.2931 31.9101C24.7723 31.4171 25.2674 30.9079 25.9395 30.19C26.0078 30.1174 26.0344 30.0047 26.0056 29.9084C25.4695 28.0769 25.182 27.0456 24.6726 25.156C24.6465 25.0586 24.5694 24.9781 24.4728 24.9533L23.4418 24.6858ZM37.0759 28.2278L37.0709 28.2447C35.6808 29.722 34.9377 30.4902 33.5543 31.8864C33.4833 31.9585 33.4538 32.0712 33.481 32.1692C33.7323 33.082 33.9218 33.7559 34.1036 34.4021C34.117 34.4496 34.1303 34.497 34.1436 34.5442L34.1677 34.6299C34.3049 35.1178 34.4415 35.6035 34.6009 36.1787C34.6286 36.2789 34.7141 36.3601 34.814 36.382C36.481 36.7509 37.3361 36.8681 38.8972 37.068C38.9099 37.0674 38.9499 37.0562 38.986 37.0241L38.9905 37.02C40.3011 35.8522 41.0244 35.2078 42.1807 33.7974C42.2057 33.767 42.2145 33.7298 42.2145 33.7208C41.9432 32.1258 41.7917 31.2489 41.4571 29.5311C41.436 29.4252 41.3561 29.3357 41.2523 29.3086L37.097 28.2306C37.0944 28.2297 37.0926 28.2285 37.0901 28.2273C37.0867 28.2255 37.0831 28.2237 37.0792 28.2227C37.0781 28.2244 37.0775 28.2267 37.0759 28.2278Z" fill="#27AE60"/>
</g>
</svg>
