<svg width="21" height="21" viewBox="0 0 21 21" fill="none" xmlns="http://www.w3.org/2000/svg">
<g id="Icon">
<g id="Group 427320674">
<path id="Vector" d="M10.5855 14.5221L12.1815 12.6578C11.1468 12.9035 10.103 12.8108 9.05713 12.6187L10.5855 14.5221Z" fill="white"/>
<path id="Vector_2" d="M18.8228 1.60449H2.34851C0.944993 1.60449 0.0384906 3.08966 0.680221 4.33803L7.89762 18.3766C8.05527 18.6833 8.29438 18.9405 8.58869 19.1201C8.883 19.2997 9.22112 19.3948 9.56591 19.3947H10.0685L10.062 15.0886C9.68265 14.1359 8.87335 13.1235 7.95718 12.1678C7.86097 12.0674 7.76988 11.9622 7.68425 11.8526C6.05987 9.77145 5.42563 7.69282 7.45741 5.62159C8.64784 4.3551 10.1018 4.08673 11.7167 4.46738C12.7821 4.71888 13.7201 5.35976 14.314 6.27868C14.3333 6.30865 14.3523 6.33865 14.3709 6.36868C15.3059 7.88533 15.1664 9.83205 14.0579 11.2267C12.8899 12.6965 11.6322 14.0687 11.1821 15.0602L11.1656 19.3951H11.6054C11.9502 19.3951 12.2883 19.3001 12.5826 19.1205C12.8769 18.9409 13.116 18.6836 13.2737 18.377L20.4911 4.33841C21.1329 3.08966 20.2265 1.60449 18.8228 1.60449Z" fill="white"/>
</g>
<path id="Union" fill-rule="evenodd" clip-rule="evenodd" d="M13.7829 8.47944C13.7816 8.46072 13.7803 8.44199 13.7794 8.4232C13.6822 8.54189 13.5761 8.67008 13.4441 8.82778C13.4413 8.83854 13.4381 8.85135 13.4348 8.86415C13.4316 8.87695 13.4283 8.88975 13.4255 8.90052C13.4935 9.2427 13.5372 9.47602 13.5817 9.72426C13.7127 9.37123 13.788 8.9909 13.788 8.59276C13.788 8.55453 13.7855 8.51697 13.7829 8.47944ZM10.8276 11.4873C10.8248 11.4861 10.822 11.4849 10.819 11.484C10.8171 11.4856 10.8156 11.4875 10.8141 11.4893C10.8124 11.4914 10.8108 11.4935 10.8086 11.4952C10.6306 11.6393 10.4905 11.7497 10.3586 11.8486C10.3773 11.8495 10.396 11.8507 10.4146 11.852C10.4509 11.8544 10.4871 11.8569 10.5239 11.8569C10.8003 11.8569 11.068 11.8206 11.3243 11.7546C11.4112 11.7321 11.405 11.6056 11.3166 11.5891C11.1764 11.5632 11.0229 11.5318 10.8379 11.491C10.8343 11.4901 10.8309 11.4887 10.8276 11.4873ZM9.39563 6.42064C8.96595 6.84608 8.74026 7.07567 8.32229 7.51247C8.31864 7.5268 8.31517 7.54032 8.31169 7.55384C8.30821 7.56736 8.30474 7.58089 8.30109 7.59522C8.45709 8.1758 8.54476 8.4856 8.71839 9.06839C8.72042 9.075 8.72619 9.0806 8.73314 9.08263L8.73331 9.08297C9.32848 9.24202 9.63963 9.32189 10.2138 9.46195C10.2423 9.45415 10.2674 9.4472 10.2957 9.43923C10.7104 9.02837 10.9353 8.79929 11.3427 8.37335C11.3464 8.35903 11.3499 8.34551 11.3533 8.33199C11.3568 8.31846 11.3603 8.30493 11.3639 8.2906C11.211 7.72103 11.1237 7.41208 10.9571 6.85269C10.9526 6.84824 10.9481 6.84391 10.9438 6.83965C10.928 6.82425 10.9131 6.80972 10.8966 6.79351L10.7187 6.74604C10.2484 6.62124 9.94366 6.54408 9.41564 6.41539C9.41411 6.41505 9.41225 6.41471 9.41055 6.41471C9.40495 6.41471 9.39936 6.41691 9.39563 6.42064ZM7.94039 7.23384C7.97007 7.24113 8.00212 7.23129 8.02314 7.20925C8.42552 6.78873 8.65155 6.5588 9.06291 6.14981C9.08462 6.12811 9.0936 6.09454 9.0853 6.06503C9.06502 5.99247 9.04608 5.92518 9.02823 5.86171C9.02413 5.84716 9.0201 5.83282 9.01611 5.81865C9.00119 5.76575 8.93964 5.73997 8.89199 5.76761C8.36804 6.07164 7.93802 6.51794 7.65061 7.05257C7.62467 7.10107 7.65248 7.1616 7.70589 7.175L7.94039 7.23384ZM11.5642 5.86936L11.6038 5.82917C11.6252 5.80756 11.6466 5.78592 11.668 5.76416C11.6912 5.74066 11.7145 5.71703 11.7381 5.69318C11.7805 5.65011 11.7668 5.57567 11.7105 5.55346C11.3424 5.40899 10.9425 5.32861 10.5239 5.32861C10.1493 5.32861 9.79051 5.39508 9.45545 5.51225C9.41289 5.52701 9.38966 5.57296 9.40204 5.61619C9.43171 5.71793 9.4641 5.82866 9.50174 5.95532C9.51039 5.98432 9.53532 6.00806 9.56448 6.01518C10.1242 6.15185 10.4355 6.23137 10.9998 6.38076C11.0293 6.38873 11.0629 6.3794 11.0843 6.35753C11.279 6.15832 11.4251 6.01025 11.5642 5.86936ZM11.8377 8.23698L13.0595 8.54932C13.0911 8.55746 13.1255 8.54542 13.1465 8.52049C13.3656 8.25834 13.5131 8.07776 13.6717 7.88039C13.6885 7.85936 13.6951 7.83121 13.6885 7.80493C13.4845 6.9861 12.9712 6.29021 12.2794 5.84646C12.2453 5.82459 12.1992 5.8312 12.171 5.86003C12.0995 5.93289 12.0328 6.00048 11.967 6.06711C11.9477 6.0867 11.9285 6.10621 11.9092 6.12573C11.7575 6.27936 11.6026 6.43621 11.3895 6.66037C11.3686 6.68242 11.3605 6.71616 11.3692 6.74532C11.5338 7.29861 11.6216 7.60891 11.7766 8.17594C11.7848 8.20527 11.8082 8.22935 11.8377 8.23698ZM8.61611 9.49193C8.3855 9.72796 8.22272 9.89294 8.06384 10.0537C7.98567 10.1327 7.90852 10.2109 7.82492 10.296C7.79661 10.3247 7.79101 10.3709 7.81356 10.4045C8.25392 11.0612 8.92573 11.5484 9.712 11.7507C9.73608 11.757 9.76237 11.752 9.78288 11.7381C10.0109 11.5837 10.1963 11.4441 10.4783 11.2171C10.5047 11.1957 10.5168 11.1586 10.5074 11.1258C10.4576 10.949 10.415 10.7999 10.3716 10.6485L10.3681 10.6362C10.3099 10.4323 10.25 10.2225 10.1632 9.93042C10.1546 9.90159 10.1298 9.87785 10.1005 9.87073C10.0736 9.86412 10.0472 9.85765 10.0214 9.85131C9.92209 9.82691 9.83041 9.80439 9.7432 9.78273C9.37288 9.69066 9.0819 9.61503 8.62391 9.49227C8.62255 9.49199 8.62133 9.49143 8.6201 9.49086C8.61904 9.49036 8.61797 9.48987 8.61679 9.48955L8.61611 9.49193ZM7.51225 7.56822C7.4685 7.55703 7.42272 7.58161 7.40932 7.62468C7.31352 7.93092 7.25977 8.25546 7.25977 8.59273C7.25977 9.07988 7.36998 9.54059 7.5621 9.95619L7.77237 9.74323C7.91881 9.5948 8.07009 9.44148 8.27546 9.22537C8.29631 9.2035 8.30445 9.16958 8.29563 9.14059C8.13183 8.58917 8.044 8.27869 7.88834 7.70981C7.88037 7.68047 7.8568 7.65622 7.8273 7.64876L7.51225 7.56822ZM11.6783 8.63461L11.6767 8.6397C11.252 9.08446 11.0249 9.31575 10.6022 9.7361C10.5805 9.7578 10.5715 9.79171 10.5798 9.82122C10.6566 10.0961 10.7145 10.2989 10.7701 10.4935C10.7742 10.5078 10.7782 10.522 10.7823 10.5363L10.7897 10.5621C10.8316 10.7089 10.8733 10.8552 10.922 11.0283C10.9305 11.0585 10.9566 11.0829 10.9871 11.0896C11.4965 11.2006 11.7578 11.2359 12.2348 11.2961C12.2387 11.2959 12.2509 11.2925 12.2619 11.2829L12.2633 11.2816C12.6638 10.9301 12.8848 10.736 13.2381 10.3114C13.2457 10.3023 13.2484 10.2911 13.2484 10.2884C13.1655 9.80816 13.1192 9.54415 13.017 9.02698C13.0105 8.9951 12.9861 8.96814 12.9544 8.96L11.6847 8.63546C11.6839 8.63518 11.6834 8.63481 11.6826 8.63444C11.6816 8.63391 11.6805 8.63338 11.6793 8.63308C11.679 8.63359 11.6788 8.63427 11.6783 8.63461Z" fill="white"/>
</g>
</svg>
