<svg width="24" height="24" viewBox="0 0 24 24" fill="none" xmlns="http://www.w3.org/2000/svg">
<g id="Ic_24-Pickleball-paddle">
<path id="Vector" d="M21.9917 9.00046C22.039 8.07151 21.8886 7.14311 21.5506 6.27656C21.2126 5.41001 20.6945 4.62503 20.0307 3.97346C17.3097 1.25246 12.9307 1.21646 9.47374 4.67346C6.64274 7.50346 6.15374 10.8485 7.48474 13.4655L2.72974 17.3575C2.51459 17.5336 2.33871 17.7529 2.21345 18.0011C2.08819 18.2494 2.01632 18.5211 2.00247 18.7989C1.98862 19.0766 2.0331 19.3541 2.13304 19.6136C2.23299 19.8731 2.38618 20.1088 2.58274 20.3055L3.69974 21.4175C3.89651 21.614 4.13227 21.7673 4.39184 21.8672C4.65141 21.9672 4.92903 22.0116 5.20684 21.9978C5.48464 21.9839 5.75646 21.9121 6.0048 21.7868C6.25315 21.6615 6.4725 21.4856 6.64874 21.2705L10.5387 16.5165C11.3056 16.9053 12.1422 17.1378 12.9997 17.2005M22 15C22 16.6569 20.6569 18 19 18C17.3431 18 16 16.6569 16 15C16 13.3431 17.3431 12 19 12C20.6569 12 22 13.3431 22 15Z" stroke="#99A2A8" stroke-width="1.5" stroke-linecap="round" stroke-linejoin="round"/>
</g>
</svg>
