<svg width="24" height="24" viewBox="0 0 24 24" fill="none" xmlns="http://www.w3.org/2000/svg">
<g id="Ic_24-map-location">
<g id="Vector">
<path d="M20 10.9761C20 15.6212 15.5146 19.7695 13.261 21.5606C12.5237 22.1465 11.4763 22.1465 10.739 21.5606C8.48542 19.7695 4 15.6212 4 10.9761C4 8.86068 4.84285 6.83194 6.34315 5.33613C7.84344 3.84033 9.87827 3 12 3C14.1217 3 16.1566 3.84033 17.6569 5.33613C19.1571 6.83194 20 8.86068 20 10.9761Z" stroke="#99A2A8" stroke-width="1.5" stroke-linecap="round" stroke-linejoin="round"/>
<path d="M12 14C13.6569 14 15 12.6569 15 11C15 9.34315 13.6569 8 12 8C10.3431 8 9 9.34315 9 11C9 12.6569 10.3431 14 12 14Z" stroke="#99A2A8" stroke-width="1.5" stroke-linecap="round" stroke-linejoin="round"/>
</g>
</g>
</svg>
